<?xml version="1.0" encoding="UTF-8"?>
<svg id="_layer_1" data-name="layer 1" xmlns="http://www.w3.org/2000/svg" xmlns:xlink="http://www.w3.org/1999/xlink" viewBox="0 0 750.01 634.62">
  <defs>
    <style>
      .cls-1 {
        fill: url(#_grad_71);
        stroke-width: 0px;
      }
    </style>
    <linearGradient id="_grad_71" data-name="grad 71" x1="-38.04" y1="702.67" x2="747.3" y2="-82.67" gradientUnits="userSpaceOnUse">
      <stop offset=".13" stop-color="#d16a8a"/>
      <stop offset=".49" stop-color="#721ba2"/>
      <stop offset=".68" stop-color="#96c6eb"/>
      <stop offset=".92" stop-color="#d16a8a"/>
    </linearGradient>
  </defs>
  <path class="cls-1" d="M643.52,11.69c-29.52-30.57-115.4.59-219.96,72.58-30.49-14.03-64.31-22.12-100.01-22.74-138.05-2.41-251.92,107.55-254.33,245.6-.63,35.93,6.37,70.21,19.48,101.32C14.55,509.17-18.68,592.65,10.56,622.93c29.96,31.03,118.01-1.55,224.71-75.88,24.91,8.87,51.65,13.91,79.55,14.4,138.05,2.41,251.92-107.55,254.33-245.6.48-27.68-3.56-54.37-11.43-79.4,79.49-105.29,116.04-193.45,85.8-224.76ZM107.15,529.41c-12.79-13.25-9.4-40.22,6.78-75.18,19.28,27.68,44.03,51.3,72.71,69.27-37.54,16.52-66.2,19.67-79.49,5.91ZM119.21,308c1.93-110.44,93.02-198.41,203.46-196.48,83.78,1.46,154.62,54.25,183.1,127.86-11.1,16.22-23.88,33.2-38.12,50.61-10.28-71.58-71.22-127.17-145.85-128.48-82.83-1.45-151.15,64.53-152.6,147.36-1.3,74.37,51.77,137.04,122.58,150.11-18.05,13.58-35.57,25.65-52.23,36.02-72.01-31.28-121.8-103.62-120.34-187ZM315.69,511.46c-9.77-.17-19.36-1.05-28.73-2.57,19.92-15.52,40.24-32.27,60.73-50.11,58.01-11.17,104.32-55.82,117.62-113.35,18.57-19.8,36.06-39.47,52.33-58.8,1.15,9.28,1.68,18.74,1.51,28.36-1.93,110.44-93.02,198.41-203.46,196.48ZM536.6,188.05c-17.36-30.5-40.94-57.04-69.08-77.81,37.85-16.76,66.77-20.04,80.13-6.21,13.85,14.34,8.74,44.76-11.05,84.02ZM691.06,217.29c-33.13-.58-60.46,25.81-61.04,58.94s25.81,60.46,58.94,61.04c33.13.58,60.46-25.81,61.04-58.94s-25.81-60.46-58.94-61.04ZM689.49,307.28c-16.57-.29-29.76-13.95-29.47-30.52.29-16.57,13.95-29.76,30.52-29.47,16.57.29,29.76,13.95,29.47,30.52-.29,16.57-13.95,29.76-30.52,29.47Z"/>
</svg>